<svg width="23" height="24" viewBox="0 0 23 24" fill="none" xmlns="http://www.w3.org/2000/svg">
<path d="M11.1111 13.2236C12.6458 13.2236 13.8889 11.9806 13.8889 10.4458C13.8889 8.91113 12.6458 7.66807 11.1111 7.66807C9.57639 7.66807 8.33334 8.91113 8.33334 10.4458C8.33334 11.9806 9.57639 13.2236 11.1111 13.2236ZM11.1111 9.05696C11.875 9.05696 12.5 9.68196 12.5 10.4458C12.5 11.2097 11.875 11.8347 11.1111 11.8347C10.3472 11.8347 9.72223 11.2097 9.72223 10.4458C9.72223 9.68196 10.3472 9.05696 11.1111 9.05696ZM18.0556 13.2236C19.5903 13.2236 20.8333 11.9806 20.8333 10.4458C20.8333 8.91113 19.5903 7.66807 18.0556 7.66807C16.5208 7.66807 15.2778 8.91113 15.2778 10.4458C15.2778 11.9806 16.5208 13.2236 18.0556 13.2236ZM18.0556 9.05696C18.8194 9.05696 19.4444 9.68196 19.4444 10.4458C19.4444 11.2097 18.8194 11.8347 18.0556 11.8347C17.2917 11.8347 16.6667 11.2097 16.6667 10.4458C16.6667 9.68196 17.2917 9.05696 18.0556 9.05696ZM4.16667 13.2236C5.70139 13.2236 6.94445 11.9806 6.94445 10.4458C6.94445 8.91113 5.70139 7.66807 4.16667 7.66807C2.63195 7.66807 1.38889 8.91113 1.38889 10.4458C1.38889 11.9806 2.63195 13.2236 4.16667 13.2236ZM4.16667 9.05696C4.93056 9.05696 5.55556 9.68196 5.55556 10.4458C5.55556 11.2097 4.93056 11.8347 4.16667 11.8347C3.40278 11.8347 2.77778 11.2097 2.77778 10.4458C2.77778 9.68196 3.40278 9.05696 4.16667 9.05696ZM18.0556 13.9181C16.6042 13.9181 15.3333 14.6611 14.5833 15.7861C13.8333 14.6611 12.5625 13.9181 11.1111 13.9181C9.65973 13.9181 8.38889 14.6611 7.63889 15.7861C7.14544 15.0386 6.42411 14.4702 5.58197 14.1651C4.73983 13.8601 3.82177 13.8347 2.96408 14.0928C2.10638 14.3509 1.35477 14.8787 0.820812 15.5978C0.286851 16.3169 -0.000994378 17.1891 2.58102e-06 18.0847V22.9458C2.58102e-06 23.3278 0.312503 23.6403 0.694447 23.6403H21.5278C21.9097 23.6403 22.2222 23.3278 22.2222 22.9458V18.0847C22.2222 15.7861 20.3542 13.9181 18.0556 13.9181ZM1.38889 18.0847C1.38889 16.55 2.63195 15.307 4.16667 15.307C5.70139 15.307 6.94445 16.55 6.94445 18.0847V22.2514H1.38889V18.0847ZM8.33334 18.0847C8.33334 16.55 9.57639 15.307 11.1111 15.307C12.6458 15.307 13.8889 16.55 13.8889 18.0847V22.2514H8.33334V18.0847ZM20.8333 22.2514H15.2778V18.0847C15.2778 16.55 16.5208 15.307 18.0556 15.307C19.5903 15.307 20.8333 16.55 20.8333 18.0847V22.2514ZM9.22917 2.60557C9.16488 2.54128 9.11388 2.46495 9.07908 2.38095C9.04429 2.29694 9.02638 2.20691 9.02638 2.11599C9.02638 2.02506 9.04429 1.93503 9.07908 1.85103C9.11388 1.76702 9.16488 1.6907 9.22917 1.6264C9.29346 1.56211 9.36979 1.51111 9.45379 1.47632C9.5378 1.44152 9.62783 1.42361 9.71875 1.42361C9.80968 1.42361 9.89971 1.44152 9.98371 1.47632C10.0677 1.51111 10.144 1.56211 10.2083 1.6264L11.1042 2.52224L13.3889 0.237514C13.4532 0.173221 13.5295 0.122221 13.6135 0.0874261C13.6975 0.052631 13.7876 0.0347222 13.8785 0.0347222C13.9694 0.0347222 14.0594 0.052631 14.1434 0.0874261C14.2274 0.122221 14.3038 0.173221 14.3681 0.237514C14.4324 0.301807 14.4834 0.378134 14.5181 0.462137C14.5529 0.54614 14.5709 0.636174 14.5709 0.727098C14.5709 0.818022 14.5529 0.908055 14.5181 0.992058C14.4834 1.07606 14.4324 1.15239 14.3681 1.21668L11.5903 3.99446C11.4514 4.13335 11.2778 4.19585 11.0972 4.19585C10.9167 4.19585 10.7431 4.1264 10.6042 3.99446L9.21528 2.60557H9.22917ZM16.1736 2.60557C16.1093 2.54128 16.0583 2.46495 16.0235 2.38095C15.9887 2.29694 15.9708 2.20691 15.9708 2.11599C15.9708 2.02506 15.9887 1.93503 16.0235 1.85103C16.0583 1.76702 16.1093 1.6907 16.1736 1.6264C16.2379 1.56211 16.3142 1.51111 16.3982 1.47632C16.4822 1.44152 16.5723 1.42361 16.6632 1.42361C16.7541 1.42361 16.8442 1.44152 16.9282 1.47632C17.0122 1.51111 17.0885 1.56211 17.1528 1.6264L18.0486 2.52224L20.3333 0.237514C20.3976 0.173221 20.474 0.122221 20.558 0.0874261C20.642 0.052631 20.732 0.0347222 20.8229 0.0347222C20.9138 0.0347222 21.0039 0.052631 21.0879 0.0874261C21.1719 0.122221 21.2482 0.173221 21.3125 0.237514C21.3768 0.301807 21.4278 0.378134 21.4626 0.462137C21.4974 0.54614 21.5153 0.636174 21.5153 0.727098C21.5153 0.818022 21.4974 0.908055 21.4626 0.992058C21.4278 1.07606 21.3768 1.15239 21.3125 1.21668L18.5347 3.99446C18.3958 4.13335 18.2222 4.19585 18.0417 4.19585C17.8611 4.19585 17.6875 4.1264 17.5486 3.99446L16.1597 2.60557H16.1736ZM2.07639 3.14029L3.05556 2.16113L2.07639 1.18196C1.94655 1.05211 1.8736 0.876005 1.8736 0.692375C1.8736 0.508746 1.94655 0.332638 2.07639 0.202792C2.20624 0.0729465 2.38235 0 2.56598 0C2.7496 0 2.92571 0.0729465 3.05556 0.202792L4.03473 1.18196L5.01389 0.202792C5.14374 0.0729465 5.31985 0 5.50348 0C5.6871 0 5.86321 0.0729465 5.99306 0.202792C6.1229 0.332638 6.19585 0.508746 6.19585 0.692375C6.19585 0.876005 6.1229 1.05211 5.99306 1.18196L5.01389 2.16113L5.99306 3.14029C6.08997 3.23727 6.15587 3.36086 6.18239 3.49537C6.20892 3.62988 6.19487 3.76924 6.14203 3.89575C6.0892 4.02226 5.99996 4.13021 5.88564 4.2059C5.77133 4.28159 5.6371 4.3216 5.5 4.32085C5.31945 4.32085 5.14584 4.2514 5.00695 4.11946L4.02778 3.14029L3.04861 4.11946C2.90972 4.25835 2.73611 4.32085 2.55556 4.32085C2.375 4.32085 2.20139 4.2514 2.0625 4.11946C1.99813 4.05521 1.94705 3.9789 1.9122 3.89489C1.87735 3.81088 1.85942 3.72083 1.85942 3.62988C1.85942 3.53893 1.87735 3.44887 1.9122 3.36486C1.94705 3.28085 1.99813 3.20454 2.0625 3.14029H2.07639Z" fill="#617492"/>
</svg>
