<svg width="25" height="25" viewBox="0 0 25 25" fill="none" xmlns="http://www.w3.org/2000/svg">
<path d="M25 13.3753V8.90193L21.9653 8.25812C21.8281 7.90054 21.6655 7.55114 21.4783 7.21203L23.1137 4.84401L19.5639 1.68084L16.9064 3.13812C16.5259 2.97135 16.1338 2.8264 15.7326 2.70416L15.0101 0H9.99L9.26744 2.70416C8.86618 2.8264 8.47409 2.97135 8.09356 3.13812L5.43611 1.68084L1.88628 4.84401L3.52161 7.21203C3.33447 7.55114 3.1718 7.90054 3.03461 8.25812L0 8.90188V13.3752L3.03467 14.0191C3.17186 14.3767 3.33452 14.7261 3.52167 15.0652L1.87861 17.4444L4.33994 19.5451C4.07775 20.2456 3.9442 20.9791 3.94444 21.7175V25H21.1667V21.7175C21.1667 20.9994 21.0403 20.2917 20.7968 19.6167L23.1016 17.4157L21.4784 15.0652C21.6655 14.7261 21.8282 14.3767 21.9654 14.0192L25 13.3753ZM19.5 23.5149H5.61111V21.7175C5.61111 20.6875 5.94044 19.6845 6.56356 18.8169C7.679 17.2638 9.58033 16.3366 11.6496 16.3366H13.4615C15.5308 16.3366 17.4321 17.2638 18.5476 18.8169C19.17 19.6826 19.5006 20.6893 19.5 21.7175V23.5149ZM12.5556 14.7896C10.4304 14.7896 8.70139 13.2489 8.70139 11.3552C8.70139 9.46148 10.4304 7.92079 12.5556 7.92079C14.6807 7.92079 16.4097 9.46148 16.4097 11.3552C16.4097 13.2489 14.6807 14.7896 12.5556 14.7896ZM21.0164 17.23L20.0474 18.1554C20.0157 18.1089 19.9843 18.0622 19.9513 18.0163C18.9955 16.6855 17.5871 15.7156 15.9656 15.2215C17.2501 14.32 18.0763 12.922 18.0763 11.3552C18.0763 8.64257 15.5997 6.43564 12.5555 6.43564C9.51133 6.43564 7.03467 8.64257 7.03467 11.3552C7.03467 12.922 7.86089 14.32 9.14544 15.2215C7.52394 15.7156 6.1155 16.6855 5.15967 18.0163C5.134 18.0521 5.10983 18.0885 5.08494 18.1246L4.00328 17.2014L5.44433 15.1147L4.35433 12.7725L1.66667 12.2022V10.075L4.35439 9.5047L5.44439 7.16252L3.99561 5.0647L5.68367 3.56049L8.03794 4.85149L10.6664 3.8802L11.3064 1.48515H13.6937L14.3336 3.88015L16.9621 4.85149L19.3163 3.56049L21.0043 5.0647L19.5556 7.16252L20.6456 9.5047L23.3333 10.075V12.2022L20.6456 12.7725L19.5556 15.1147L21.0164 17.23Z" fill="#617492"/>
</svg>
