<svg width="23" height="23" viewBox="0 0 23 23" fill="none" xmlns="http://www.w3.org/2000/svg">
<path d="M19.5313 22.3958H2.86458C2.10502 22.3953 1.37672 22.0933 0.839627 21.5562C0.302533 21.0191 0.000551809 20.2908 0 19.5313V7.03125C0 6.82405 0.0823101 6.62534 0.228823 6.47882C0.375336 6.33231 0.57405 6.25 0.78125 6.25H21.6146C21.8218 6.25 22.0205 6.33231 22.167 6.47882C22.3135 6.62534 22.3958 6.82405 22.3958 7.03125V19.5313C22.3953 20.2908 22.0933 21.0191 21.5562 21.5562C21.0191 22.0933 20.2908 22.3953 19.5313 22.3958ZM1.5625 7.8125V19.5313C1.56305 19.8764 1.70041 20.2073 1.94448 20.4514C2.18855 20.6954 2.51942 20.8328 2.86458 20.8333H19.5313C19.8764 20.8328 20.2073 20.6954 20.4514 20.4514C20.6954 20.2073 20.8328 19.8764 20.8333 19.5313V7.8125H1.5625Z" fill="#617492"/>
<path d="M21.6146 7.81251H0.781254C0.648128 7.81251 0.51721 7.77849 0.400927 7.71367C0.284643 7.64886 0.18685 7.55541 0.116828 7.44218C0.0468069 7.32896 0.00687978 7.19972 0.000836115 7.06673C-0.00520755 6.93374 0.0228327 6.80141 0.0822959 6.6823L2.9198 1.0073C3.07027 0.703853 3.30275 0.448637 3.59089 0.270598C3.87904 0.092558 4.2113 -0.00118081 4.55 1.17086e-05H17.8458C18.1847 -0.00120637 18.5171 0.0926378 18.8052 0.270882C19.0934 0.449126 19.3258 0.704623 19.476 1.00835L22.3135 6.6823C22.373 6.80141 22.4011 6.93374 22.395 7.06673C22.389 7.19972 22.349 7.32896 22.279 7.44218C22.209 7.55541 22.1112 7.64886 21.9949 7.71367C21.8786 7.77849 21.7477 7.81251 21.6146 7.81251ZM2.04584 6.25001H20.35L18.0781 1.70626C18.0568 1.66291 18.0237 1.62643 17.9826 1.60101C17.9416 1.57559 17.8941 1.56225 17.8458 1.56251H4.55C4.50185 1.56239 4.45462 1.57568 4.4136 1.60089C4.37257 1.62609 4.33937 1.66222 4.31771 1.70522L2.04584 6.25001ZM11.1979 18.2292C10.9907 18.2292 10.792 18.1469 10.6455 18.0004C10.499 17.8538 10.4167 17.6551 10.4167 17.4479V11.1979C10.4167 10.9907 10.499 10.792 10.6455 10.6455C10.792 10.499 10.9907 10.4167 11.1979 10.4167C11.4051 10.4167 11.6038 10.499 11.7503 10.6455C11.8969 10.792 11.9792 10.9907 11.9792 11.1979V17.4479C11.9792 17.6551 11.8969 17.8538 11.7503 18.0004C11.6038 18.1469 11.4051 18.2292 11.1979 18.2292Z" fill="#617492"/>
<path d="M11.1979 18.2293C11.0953 18.2295 10.9937 18.2094 10.8989 18.1701C10.8041 18.1307 10.7181 18.073 10.6458 18.0001L7.52084 14.8751C7.38284 14.727 7.30771 14.5311 7.31128 14.3287C7.31485 14.1264 7.39684 13.9332 7.53998 13.7901C7.68312 13.647 7.87623 13.565 8.07863 13.5614C8.28102 13.5578 8.4769 13.633 8.625 13.771L11.1979 16.3428L13.7708 13.771C13.9189 13.633 14.1148 13.5578 14.3172 13.5614C14.5196 13.565 14.7127 13.647 14.8559 13.7901C14.999 13.9332 15.081 14.1264 15.0846 14.3287C15.0881 14.5311 15.013 14.727 14.875 14.8751L11.75 18.0001C11.6777 18.073 11.5917 18.1307 11.4969 18.1701C11.4022 18.2094 11.3005 18.2295 11.1979 18.2293Z" fill="#617492"/>
</svg>
