<svg width="24" height="24" viewBox="0 0 24 24" fill="none" xmlns="http://www.w3.org/2000/svg">
<path d="M9.70694 19.1212C9.61429 19.2144 9.50413 19.2883 9.3828 19.3388C9.26146 19.3893 9.13135 19.4152 8.99994 19.4152C8.86854 19.4152 8.73842 19.3893 8.61709 19.3388C8.49576 19.2883 8.3856 19.2144 8.29294 19.1212L2.64694 13.4742C2.36574 13.1929 2.20776 12.8115 2.20776 12.4137C2.20776 12.016 2.36574 11.6345 2.64694 11.3532L3.35394 10.6462C3.63523 10.365 4.0167 10.207 4.41444 10.207C4.81219 10.207 5.19365 10.365 5.47494 10.6462L8.99994 14.1712L18.5249 4.64621C18.8062 4.365 19.1877 4.20703 19.5854 4.20703C19.9832 4.20703 20.3647 4.365 20.6459 4.64621L21.3529 5.35321C21.6341 5.6345 21.7921 6.01596 21.7921 6.41371C21.7921 6.81146 21.6341 7.19292 21.3529 7.47421L9.70694 19.1212Z" fill="white"/>
</svg>
