<svg width="25" height="25" viewBox="0 0 25 25" fill="none" xmlns="http://www.w3.org/2000/svg">
<path fill-rule="evenodd" clip-rule="evenodd" d="M13.9735 15.4487C14.1895 15.5397 14.3639 15.7216 14.4583 15.9543C14.5527 16.187 14.5594 16.4515 14.477 16.6897C13.734 18.8333 12.6038 20.0154 11.2317 20.6077C9.96199 21.1538 8.55505 21.1538 7.34229 21.1538H7.26671C5.96441 21.1538 4.87141 21.1666 3.93655 21.5692C3.07727 21.9384 2.27613 22.6795 1.68661 24.382C1.60396 24.6202 1.43888 24.8124 1.22769 24.9164C1.0165 25.0204 0.776494 25.0276 0.560471 24.9365C0.344448 24.8454 0.170104 24.6634 0.0757928 24.4305C-0.0185183 24.1977 -0.0250712 23.933 0.0575757 23.6949C0.799418 21.5513 1.92962 20.3692 3.30168 19.7769C4.57258 19.2308 5.97953 19.2308 7.19113 19.2308H7.26671C8.569 19.2308 9.662 19.2179 10.5969 18.8154C11.4573 18.4461 12.2584 17.7051 12.848 16.0026C12.9305 15.7644 13.0954 15.5721 13.3065 15.468C13.5176 15.3639 13.7575 15.3565 13.9735 15.4474V15.4487ZM13.6014 0H18.3769C19.6943 0 20.771 6.68641e-08 21.621 0.125641C22.5094 0.257692 23.2791 0.542307 23.8942 1.22051C24.5082 1.89872 24.7663 2.74615 24.8861 3.72692C25 4.66282 25 5.84999 25 7.30384V10.0051C25 11.4577 25 12.6436 24.8861 13.582C24.7674 14.5602 24.5082 15.409 23.8942 16.0872C23.2803 16.7654 22.5094 17.05 21.621 17.182C20.771 17.3077 19.6943 17.3077 18.3769 17.3077H16.5688C16.3375 17.3077 16.1157 17.2064 15.9522 17.026C15.7886 16.8457 15.6967 16.6012 15.6967 16.3461C15.6967 16.0911 15.7886 15.8466 15.9522 15.6662C16.1157 15.4859 16.3375 15.3846 16.5688 15.3846H18.3141C19.7094 15.3846 20.6687 15.382 21.3885 15.2756C22.0826 15.1731 22.4233 14.9884 22.6605 14.7269C22.8977 14.4667 23.064 14.091 23.1582 13.3243C23.2547 12.5308 23.257 11.4743 23.257 9.93589V7.37179C23.257 5.83333 23.2547 4.77692 23.1582 3.98333C23.0652 3.21666 22.8977 2.84231 22.6605 2.58077C22.4233 2.31923 22.0826 2.13461 21.3885 2.03205C20.6675 1.92564 19.7094 1.92308 18.3153 1.92308H13.6642C12.2689 1.92308 11.3096 1.92564 10.5899 2.03205C9.89571 2.13461 9.55502 2.31923 9.31782 2.58077C9.1155 2.80384 8.96667 3.10769 8.86899 3.65769C8.76667 4.23461 8.73295 5 8.72481 6.09743C8.72389 6.2237 8.70043 6.34854 8.65576 6.46481C8.61109 6.58108 8.54608 6.68651 8.46445 6.77509C8.38283 6.86366 8.28618 6.93364 8.18002 6.98103C8.07386 7.02842 7.96028 7.05229 7.84576 7.05128C7.73124 7.05027 7.61802 7.02439 7.51257 6.97514C7.40711 6.92588 7.31149 6.85421 7.23116 6.76421C7.15083 6.67421 7.08736 6.56764 7.04438 6.4506C7.0014 6.33355 6.97975 6.20832 6.98067 6.08205C6.98881 4.99102 7.0202 4.06025 7.15741 3.28718C7.29926 2.48846 7.56554 1.79231 8.08413 1.22051C8.70039 0.542307 9.46898 0.257692 10.3573 0.125641C11.2073 6.68641e-08 12.284 0 13.6014 0Z" fill="#617492"/>
<path fill-rule="evenodd" clip-rule="evenodd" d="M7.26677 10.8974C6.7271 10.8974 6.20953 11.1338 5.82793 11.5545C5.44632 11.9753 5.23194 12.546 5.23194 13.141C5.23194 13.736 5.44632 14.3067 5.82793 14.7274C6.20953 15.1482 6.7271 15.3846 7.26677 15.3846C7.80644 15.3846 8.32401 15.1482 8.70562 14.7274C9.08722 14.3067 9.30161 13.736 9.30161 13.141C9.30161 12.546 9.08722 11.9753 8.70562 11.5545C8.32401 11.1338 7.80644 10.8974 7.26677 10.8974ZM3.48779 13.141C3.48779 12.0359 3.88593 10.9761 4.59463 10.1947C5.30333 9.41331 6.26452 8.97432 7.26677 8.97432C8.26902 8.97432 9.23022 9.41331 9.93891 10.1947C10.6476 10.9761 11.0458 12.0359 11.0458 13.141C11.0458 14.2461 10.6476 15.3059 9.93891 16.0873C9.23022 16.8687 8.26902 17.3077 7.26677 17.3077C6.26452 17.3077 5.30333 16.8687 4.59463 16.0873C3.88593 15.3059 3.48779 14.2461 3.48779 13.141ZM11.6271 6.08971C11.6271 5.8347 11.719 5.59012 11.8826 5.4098C12.0461 5.22948 12.2679 5.12817 12.4992 5.12817H19.4758C19.7071 5.12817 19.9289 5.22948 20.0924 5.4098C20.256 5.59012 20.3479 5.8347 20.3479 6.08971C20.3479 6.34473 20.256 6.5893 20.0924 6.76962C19.9289 6.94994 19.7071 7.05125 19.4758 7.05125H12.4992C12.2679 7.05125 12.0461 6.94994 11.8826 6.76962C11.719 6.5893 11.6271 6.34473 11.6271 6.08971ZM15.1154 11.2179C15.1154 10.9629 15.2073 10.7183 15.3708 10.538C15.5344 10.3577 15.7562 10.2564 15.9875 10.2564H19.4758C19.7071 10.2564 19.9289 10.3577 20.0924 10.538C20.256 10.7183 20.3479 10.9629 20.3479 11.2179C20.3479 11.4729 20.256 11.7175 20.0924 11.8978C19.9289 12.0781 19.7071 12.1795 19.4758 12.1795H15.9875C15.7562 12.1795 15.5344 12.0781 15.3708 11.8978C15.2073 11.7175 15.1154 11.4729 15.1154 11.2179Z" fill="#617492"/>
</svg>
