<svg width="24" height="24" viewBox="0 0 24 24" fill="none" xmlns="http://www.w3.org/2000/svg">
<g clip-path="url(#clip0_564_271)">
<path d="M20.4375 3.16211H16.9219V2.48096C16.9219 1.35419 15.9756 0.4375 14.8125 0.4375H9.1875C8.02439 0.4375 7.07812 1.35419 7.07812 2.48096V3.16211H3.5625C2.39939 3.16211 1.45312 4.0788 1.45312 5.20557C1.45312 6.1105 2.06367 6.87943 2.90648 7.14735L4.16062 21.8137C4.25095 22.8644 5.1743 23.6875 6.26269 23.6875H17.7373C18.8258 23.6875 19.7491 22.8644 19.8395 21.8134L21.0935 7.1473C21.9363 6.87943 22.5469 6.1105 22.5469 5.20557C22.5469 4.0788 21.6006 3.16211 20.4375 3.16211ZM8.48438 2.48096C8.48438 2.10537 8.7998 1.7998 9.1875 1.7998H14.8125C15.2002 1.7998 15.5156 2.10537 15.5156 2.48096V3.16211H8.48438V2.48096ZM18.438 21.7006C18.4079 22.0508 18.1001 22.3252 17.7373 22.3252H6.26269C5.89992 22.3252 5.59214 22.0508 5.56209 21.7009L4.32628 7.24902H19.6737L18.438 21.7006ZM20.4375 5.88672H3.5625C3.1748 5.88672 2.85938 5.58115 2.85938 5.20557C2.85938 4.82998 3.1748 4.52441 3.5625 4.52441H20.4375C20.8252 4.52441 21.1406 4.82998 21.1406 5.20557C21.1406 5.58115 20.8252 5.88672 20.4375 5.88672Z" fill="#79747E"/>
<path d="M9.1862 20.2396L8.48307 9.25036C8.45902 8.87487 8.12354 8.58928 7.73781 8.61267C7.3502 8.63596 7.05549 8.95919 7.07949 9.33464L7.78262 20.3239C7.80573 20.6851 8.11529 20.963 8.48373 20.963C8.89093 20.963 9.21118 20.6307 9.1862 20.2396ZM12.0001 8.6114C11.6117 8.6114 11.2969 8.91637 11.2969 9.29255V20.2818C11.2969 20.658 11.6117 20.963 12.0001 20.963C12.3884 20.963 12.7032 20.658 12.7032 20.2818V9.29255C12.7032 8.91637 12.3884 8.6114 12.0001 8.6114ZM16.2623 8.61271C15.8755 8.58942 15.541 8.87491 15.517 9.25041L14.8139 20.2397C14.7899 20.6151 15.0846 20.9383 15.4722 20.9616C15.86 20.9849 16.1934 20.6993 16.2174 20.3239L16.9206 9.33469C16.9446 8.95919 16.6499 8.63596 16.2623 8.61271Z" fill="#79747E"/>
</g>
<defs>
<clipPath id="clip0_564_271">
<rect width="24" height="23.25" fill="white" transform="translate(0 0.4375)"/>
</clipPath>
</defs>
</svg>
