<svg width="18" height="18" viewBox="0 0 18 18" fill="none" xmlns="http://www.w3.org/2000/svg">
<path d="M5.20113 9.84136L4.99717 11.881C4.94618 12.187 5.09915 12.5439 5.30312 12.7479C5.50708 12.9518 5.76204 13.0538 6.06799 13.0538C6.11898 13.0538 8.20963 12.7989 8.20963 12.7989C8.46459 12.7479 8.66856 12.6459 8.87252 12.4929L17.6941 3.6204C18.102 3.21246 18.102 2.49858 17.6941 2.09065L15.9093 0.305949C15.5014 -0.101983 14.7875 -0.101983 14.3796 0.305949L11.983 2.70255H3.05949C1.37677 2.70255 0 4.07932 0 5.76204V14.9405C0 16.6232 1.37677 18 3.05949 18H12.238C13.9207 18 15.2975 16.6232 15.2975 14.9405V9.0255C15.2975 8.71955 15.0935 8.51558 14.7875 8.51558C14.4816 8.51558 14.2776 8.71955 14.2776 9.0255V14.9405C14.2776 16.0623 13.3598 16.9802 12.238 16.9802H3.05949C1.93768 16.9802 1.01983 16.0623 1.01983 14.9405V5.76204C1.01983 4.64023 1.93768 3.72238 3.05949 3.72238H10.9632L5.50708 9.17847C5.30312 9.33144 5.20113 9.5864 5.20113 9.84136ZM6.22096 9.89235L12.5439 3.5694L12.5949 3.51841L15.0935 1.01983H15.1955L16.9802 2.80453C17.0312 2.85552 17.0312 2.85552 16.9802 2.90652L8.10765 11.779H8.05666L6.017 11.983H5.96601V11.932L6.22096 9.89235Z" fill="black"/>
</svg>
