<svg width="25" height="24" viewBox="0 0 25 24" fill="none" xmlns="http://www.w3.org/2000/svg">
<path d="M10.4387 24C10.2067 24 9.98429 23.9008 9.82029 23.7243C9.65628 23.5478 9.56414 23.3084 9.56414 23.0588V14.0094L1.45716 4.41412C1.13803 4.03565 0.927836 3.56563 0.852088 3.0611C0.77634 2.55657 0.838295 2.03923 1.03043 1.57185C1.22257 1.10448 1.53664 0.707177 1.93451 0.428158C2.33237 0.149139 2.79694 0.000402458 3.27183 0H21.9782C22.4531 0.000402458 22.9177 0.149139 23.3155 0.428158C23.7134 0.707177 24.0275 1.10448 24.2196 1.57185C24.4118 2.03923 24.4737 2.55657 24.398 3.0611C24.3222 3.56563 24.112 4.03565 23.7929 4.41412L15.6859 14.0094V19.2941C15.6858 19.4351 15.6563 19.5743 15.5996 19.7013C15.5428 19.8284 15.4602 19.9401 15.358 20.0282L10.9853 23.7929C10.8302 23.9268 10.6374 23.9998 10.4387 24ZM3.27183 1.88235C3.13574 1.88272 3.00267 1.92552 2.88872 2.00559C2.77477 2.08565 2.68483 2.19955 2.62977 2.33348C2.57471 2.46742 2.55691 2.61566 2.57851 2.76026C2.60011 2.90486 2.66019 3.03962 2.75148 3.14824L11.0858 13.0306C11.2286 13.1996 11.3094 13.4187 11.3132 13.6471V21.1012L13.9368 18.8235V13.6471C13.9363 13.4122 14.0174 13.1856 14.1642 13.0118L22.4986 3.12941C22.5844 3.02031 22.6398 2.88729 22.6584 2.74573C22.677 2.60417 22.658 2.45983 22.6036 2.32941C22.5491 2.19899 22.4615 2.0878 22.3509 2.00869C22.2402 1.92958 22.111 1.88578 21.9782 1.88235H3.27183Z" fill="white"/>
</svg>
