<svg width="25" height="19" viewBox="0 0 25 19" fill="none" xmlns="http://www.w3.org/2000/svg">
<path d="M21.3379 10.045H18.8907C18.5577 10.045 18.2352 10.0867 17.9283 10.1634C17.3229 9.07253 16.087 8.323 14.6628 8.323H10.3372C8.91299 8.323 7.67705 9.07253 7.07168 10.1634C6.75806 10.0848 6.4344 10.045 6.10928 10.045H3.66211C1.64282 10.045 0 11.5509 0 13.4019V16.9879C0 18.0985 0.985693 19.0021 2.19727 19.0021H22.8027C24.0143 19.0021 25 18.0985 25 16.9879V13.4019C25 11.5509 23.3572 10.045 21.3379 10.045ZM6.67505 11.68V17.6593H2.19727C1.79341 17.6593 1.46484 17.3582 1.46484 16.988V13.402C1.46484 12.2913 2.45054 11.3878 3.66211 11.3878H6.10928C6.30811 11.3878 6.50063 11.4125 6.68394 11.4582C6.67832 11.532 6.67535 11.606 6.67505 11.68ZM16.8601 17.6593H8.13989V11.68C8.13989 10.5694 9.12559 9.66582 10.3372 9.66582H14.6628C15.8744 9.66582 16.8601 10.5694 16.8601 11.68V17.6593ZM23.5352 16.988C23.5352 17.3582 23.2066 17.6593 22.8027 17.6593H18.325V11.68C18.3246 11.606 18.3217 11.532 18.3161 11.4581C18.5034 11.4114 18.6966 11.3878 18.8907 11.3877H21.3379C22.5495 11.3877 23.5352 12.2913 23.5352 13.4019V16.988Z" fill="#617492"/>
<path d="M4.88573 3.70494C3.09134 3.70494 1.63153 5.0431 1.63153 6.68795C1.63148 8.3328 3.09134 9.67097 4.88573 9.67097C6.68007 9.67097 8.13993 8.3328 8.13993 6.68795C8.13993 5.0431 6.68011 3.70494 4.88573 3.70494ZM4.88568 8.32819C3.89901 8.32819 3.09633 7.5924 3.09633 6.68795C3.09633 5.7835 3.89901 5.04771 4.88568 5.04771C5.87235 5.04771 6.67504 5.7835 6.67504 6.68795C6.67504 7.5924 5.87235 8.32819 4.88568 8.32819ZM12.5 0C10.1027 0 8.15243 1.78777 8.15243 3.98526C8.15243 6.18275 10.1027 7.97052 12.5 7.97052C14.8973 7.97052 16.8475 6.18275 16.8475 3.98526C16.8475 1.78781 14.8973 0 12.5 0ZM12.5 6.62775C10.9104 6.62775 9.61727 5.44235 9.61727 3.98526C9.61727 2.52822 10.9104 1.34277 12.5 1.34277C14.0895 1.34277 15.3827 2.52817 15.3827 3.98526C15.3827 5.44235 14.0895 6.62775 12.5 6.62775ZM20.1142 3.70494C18.3199 3.70494 16.86 5.0431 16.86 6.68795C16.8601 8.3328 18.3199 9.67097 20.1142 9.67097C21.9086 9.67097 23.3684 8.3328 23.3684 6.68795C23.3684 5.0431 21.9086 3.70494 20.1142 3.70494ZM20.1142 8.32819C19.1276 8.32819 18.3249 7.5924 18.3249 6.68795C18.3249 5.7835 19.1276 5.04771 20.1142 5.04771C21.1009 5.04771 21.9036 5.7835 21.9036 6.68795C21.9036 7.5924 21.1009 8.32819 20.1142 8.32819Z" fill="#617492"/>
</svg>
