<svg width="25" height="24" viewBox="0 0 25 24" fill="none" xmlns="http://www.w3.org/2000/svg">
<path d="M24.3239 10.4625L21.5261 7.89786V1.17139C21.5261 0.800602 21.1982 0.5 20.7936 0.5H17.6555C17.251 0.5 16.923 0.800602 16.923 1.17139V3.67865L14.1312 1.1196C13.6954 0.720035 13.1159 0.5 12.4994 0.5C11.883 0.5 11.3034 0.720035 10.8675 1.1196L0.674878 10.4626C-0.22496 11.2873 -0.22496 12.6294 0.674878 13.4542C1.11078 13.8537 1.6903 14.0738 2.30673 14.0738C2.43588 14.0738 2.56323 14.0635 2.68819 14.0446V20.9475C2.68819 22.309 3.89663 23.4167 5.38199 23.4167H10.1459C10.5504 23.4167 10.8783 23.1161 10.8783 22.7453V17.6636H14.1206V22.7452C14.1206 23.116 14.4486 23.4166 14.8531 23.4166H19.6169C21.1023 23.4166 22.3107 22.309 22.3107 20.9474V14.0446C22.4356 14.0635 22.5629 14.0737 22.6921 14.0737H22.6922C23.3085 14.0737 23.888 13.8537 24.324 13.4541C24.7599 13.0545 25 12.5233 25 11.9583C24.9999 11.3933 24.7599 10.862 24.3239 10.4625ZM18.388 1.84277H20.0612V6.55514L18.388 5.02133V1.84277ZM19.6169 22.0739H15.5855V16.9922C15.5855 16.6214 15.2575 16.3208 14.853 16.3208H10.1458C9.74133 16.3208 9.41339 16.6214 9.41339 16.9922V22.0739H5.38194C4.70432 22.0739 4.15303 21.5686 4.15303 20.9474V13.2574L12.4994 5.60705L20.8457 13.2575V20.9475C20.8457 21.5686 20.2945 22.0739 19.6169 22.0739ZM23.2882 12.5046C23.2101 12.5766 23.1172 12.6337 23.0149 12.6725C22.9126 12.7114 22.8029 12.7312 22.6921 12.731C22.5814 12.7312 22.4717 12.7114 22.3694 12.6725C22.2671 12.6337 22.1743 12.5767 22.0962 12.5047L22.096 12.5046L13.0174 4.18282C12.7314 3.92057 12.2676 3.92066 11.9815 4.18282L2.90284 12.5045L2.9026 12.5047C2.74341 12.6506 2.53183 12.731 2.30673 12.731C2.08162 12.731 1.86994 12.6506 1.71071 12.5047C1.38208 12.2035 1.38208 11.7133 1.71071 11.412L11.9034 2.06907C11.9815 1.9971 12.0744 1.94004 12.1767 1.9012C12.279 1.86236 12.3887 1.8425 12.4994 1.84277C12.7245 1.84277 12.9362 1.92316 13.0954 2.06907L17.1376 5.77422L23.2881 11.4119C23.6168 11.7132 23.6168 12.2034 23.2882 12.5046Z" fill="#617492"/>
</svg>
