<svg width="24" height="24" viewBox="0 0 24 24" fill="none" xmlns="http://www.w3.org/2000/svg">
<g clip-path="url(#clip0_559_372)">
<path d="M5.33506 24H18.7618C20.0409 24 21.0967 22.9984 21.0967 21.767V5.4816C21.0967 4.25039 20.0409 3.24201 18.7618 3.24201H16.6451V1.98337C16.6456 1.92008 16.6335 1.85733 16.6097 1.79871C16.5858 1.7401 16.5506 1.68679 16.506 1.64185C16.4614 1.59698 16.4083 1.56136 16.3499 1.53703C16.2915 1.5127 16.2289 1.50014 16.1656 1.50008H14.3172C13.9525 0.629115 13.0446 8.54938e-05 12.0236 8.54938e-05H12.0158C11.5301 -0.00397175 11.0541 0.136462 10.6483 0.403545C10.2425 0.670627 9.92528 1.0523 9.73691 1.50008H7.90503C7.63435 1.49839 7.41172 1.71288 7.40321 1.98337V3.24201H5.33506C4.056 3.24201 3 4.25039 3 5.4816V21.767C3 22.9984 4.056 24 5.33506 24ZM8.37095 2.46782H10.0815C10.1889 2.46779 10.2932 2.43206 10.378 2.36626C10.4628 2.30046 10.5233 2.20831 10.5501 2.10434C10.7223 1.43485 11.3262 0.967243 12.0173 0.967824H12.0223C12.7328 0.967824 13.3499 1.43829 13.4899 2.08566C13.5132 2.1938 13.5729 2.29069 13.6589 2.36022C13.745 2.42975 13.8522 2.46772 13.9628 2.46782H15.6774V4.88716H8.37095V2.46782ZM3.96774 5.4816C3.96774 4.78395 4.58961 4.20975 5.33506 4.20975H7.40321V5.35666C7.40666 5.48833 7.46075 5.6136 7.55422 5.7064C7.64769 5.7992 7.77334 5.85239 7.90503 5.8549H16.1656C16.4347 5.84774 16.6483 5.62584 16.6451 5.35666V4.20975H18.7618C19.5071 4.20975 20.129 4.78395 20.129 5.4816V21.767C20.129 22.4648 19.5071 23.0323 18.7618 23.0323H5.33506C4.58961 23.0323 3.96774 22.4648 3.96774 21.767V5.4816Z" fill="#AEAEB2"/>
<path d="M8.48015 18.1937H15.6166C15.8839 18.1937 16.1005 17.9771 16.1005 17.7098C16.1005 17.4427 15.8839 17.226 15.6166 17.226H8.48015C8.21286 17.226 7.99628 17.4427 7.99628 17.7098C7.99628 17.9771 8.21286 18.1937 8.48015 18.1937ZM7.02855 20.1292H17.0682C17.3355 20.1292 17.5521 19.9126 17.5521 19.6453C17.5521 19.3782 17.3355 19.1614 17.0682 19.1614H7.02855C6.76126 19.1614 6.54468 19.3782 6.54468 19.6453C6.54468 19.9126 6.76126 20.1292 7.02855 20.1292ZM8.7096 13.0647H10.5967V14.9518C10.5967 15.219 10.8133 15.4357 11.0806 15.4357H13.016C13.2833 15.4357 13.4999 15.219 13.4999 14.9518V13.0647H15.387C15.6542 13.0647 15.8709 12.8481 15.8709 12.5808V10.6454C15.8709 10.3783 15.6542 10.1615 15.387 10.1615H13.4999V8.2744C13.4999 8.0073 13.2833 7.79053 13.016 7.79053H11.0806C10.8133 7.79053 10.5967 8.0073 10.5967 8.2744V10.1615H8.7096C8.44236 10.1615 8.22574 10.3783 8.22574 10.6454V12.5808C8.22574 12.8481 8.44236 13.0647 8.7096 13.0647ZM9.19347 11.1292H11.0806C11.3478 11.1292 11.5644 10.9126 11.5644 10.6454V8.75827H12.5322V10.6454C12.5322 10.9126 12.7488 11.1292 13.016 11.1292H14.9031V12.097H13.016C12.7488 12.097 12.5322 12.3137 12.5322 12.5808V14.4679H11.5644V12.5808C11.5644 12.3137 11.3478 12.097 11.0806 12.097H9.19347V11.1292Z" fill="#AEAEB2"/>
</g>
<defs>
<clipPath id="clip0_559_372">
<rect width="24" height="24" fill="white"/>
</clipPath>
</defs>
</svg>
