<svg width="25" height="19" viewBox="0 0 25 19" fill="none" xmlns="http://www.w3.org/2000/svg">
<path d="M23.4375 18.8751H1.56251C0.699529 18.8751 0 18.1755 0 17.3126C0 16.4496 0.699529 15.75 1.56251 15.75H23.4375C24.3005 15.75 25.0001 16.4496 25.0001 17.3126C25 18.1755 24.3005 18.8751 23.4375 18.8751ZM23.4375 11.0625H1.56251C0.699529 11.0625 0 10.363 0 9.50006C0 8.63713 0.699529 7.93755 1.56251 7.93755H23.4375C24.3005 7.93755 25.0001 8.63708 25.0001 9.50006C25.0001 10.363 24.3005 11.0625 23.4375 11.0625ZM23.4375 3.25002H1.56251C0.699529 3.25002 0 2.55049 0 1.68751C0 0.824529 0.699529 0.125 1.56251 0.125H23.4375C24.3005 0.125 25.0001 0.824529 25.0001 1.68751C25.0001 2.55049 24.3005 3.25002 23.4375 3.25002Z" fill="#617492"/>
</svg>
