<svg width="10" height="9" viewBox="0 0 10 9" fill="none" xmlns="http://www.w3.org/2000/svg">
<path fill-rule="evenodd" clip-rule="evenodd" d="M10 0.75C10 0.551088 9.92475 0.360322 9.79079 0.21967C9.65684 0.0790178 9.47515 0 9.28571 0H0.714286C0.524845 0 0.343164 0.0790178 0.20921 0.21967C0.075255 0.360322 0 0.551088 0 0.75C0 0.948912 0.075255 1.13968 0.20921 1.28033C0.343164 1.42098 0.524845 1.5 0.714286 1.5H9.28571C9.47515 1.5 9.65684 1.42098 9.79079 1.28033C9.92475 1.13968 10 0.948912 10 0.75ZM10 4.5C10 4.30109 9.92475 4.11032 9.79079 3.96967C9.65684 3.82902 9.47515 3.75 9.28571 3.75H3.57143C3.38199 3.75 3.20031 3.82902 3.06635 3.96967C2.9324 4.11032 2.85714 4.30109 2.85714 4.5C2.85714 4.69891 2.9324 4.88968 3.06635 5.03033C3.20031 5.17098 3.38199 5.25 3.57143 5.25H9.28571C9.47515 5.25 9.65684 5.17098 9.79079 5.03033C9.92475 4.88968 10 4.69891 10 4.5ZM9.28571 7.5C9.47515 7.5 9.65684 7.57902 9.79079 7.71967C9.92475 7.86032 10 8.05109 10 8.25C10 8.44891 9.92475 8.63968 9.79079 8.78033C9.65684 8.92098 9.47515 9 9.28571 9H0.714286C0.524845 9 0.343164 8.92098 0.20921 8.78033C0.075255 8.63968 0 8.44891 0 8.25C0 8.05109 0.075255 7.86032 0.20921 7.71967C0.343164 7.57902 0.524845 7.5 0.714286 7.5H9.28571Z" fill="white"/>
</svg>
