<svg width="24" height="24" viewBox="0 0 24 24" fill="none" xmlns="http://www.w3.org/2000/svg">
<path d="M12.8893 24H0.444459C0.326581 24 0.213531 23.9579 0.130179 23.8828C0.0468269 23.8078 0 23.7061 0 23.6V5.2C0 5.09391 0.0468269 4.99217 0.130179 4.91716C0.213531 4.84214 0.326581 4.8 0.444459 4.8C0.562337 4.8 0.675387 4.84214 0.758739 4.91716C0.842091 4.99217 0.888918 5.09391 0.888918 5.2V23.2H12.8893C13.0072 23.2 13.1202 23.2421 13.2036 23.3172C13.2869 23.3922 13.3338 23.4939 13.3338 23.6C13.3338 23.7061 13.2869 23.8078 13.2036 23.8828C13.1202 23.9579 13.0072 24 12.8893 24ZM20.0007 12.8C19.8828 12.8 19.7697 12.7579 19.6864 12.6828C19.603 12.6078 19.5562 12.5061 19.5562 12.4V0.8H5.77797C5.66009 0.8 5.54704 0.757857 5.46369 0.682843C5.38034 0.607828 5.33351 0.506087 5.33351 0.4C5.33351 0.293913 5.38034 0.192172 5.46369 0.117157C5.54704 0.0421427 5.66009 0 5.77797 0H20.0007C20.1185 0 20.2316 0.0421427 20.3149 0.117157C20.3983 0.192172 20.4451 0.293913 20.4451 0.4V12.4C20.4451 12.5061 20.3983 12.6078 20.3149 12.6828C20.2316 12.7579 20.1185 12.8 20.0007 12.8ZM17.3339 12.8C17.4518 12.8 17.5648 12.7579 17.6482 12.6828C17.7315 12.6078 17.7784 12.5061 17.7784 12.4C17.7784 12.2939 17.7315 12.1922 17.6482 12.1172C17.5648 12.0421 17.4518 12 17.3339 12C17.216 12 17.103 12.0421 17.0196 12.1172C16.9363 12.1922 16.8894 12.2939 16.8894 12.4C16.8894 12.5061 16.9363 12.6078 17.0196 12.6828C17.103 12.7579 17.216 12.8 17.3339 12.8Z" fill="#AEAEB2"/>
<path d="M17.3337 8.0002C17.4515 8.0002 17.5646 7.95805 17.6479 7.88304C17.7313 7.80802 17.7781 7.70628 17.7781 7.6002C17.7781 7.49411 17.7313 7.39237 17.6479 7.31735C17.5646 7.24234 17.4515 7.2002 17.3337 7.2002C17.2158 7.2002 17.1027 7.24234 17.0194 7.31735C16.936 7.39237 16.8892 7.49411 16.8892 7.6002C16.8892 7.70628 16.936 7.80802 17.0194 7.88304C17.1027 7.95805 17.2158 8.0002 17.3337 8.0002ZM17.3337 10.4002C17.4515 10.4002 17.5646 10.3581 17.6479 10.283C17.7313 10.208 17.7781 10.1063 17.7781 10.0002C17.7781 9.89411 17.7313 9.79237 17.6479 9.71735C17.5646 9.64234 17.4515 9.6002 17.3337 9.6002C17.2158 9.6002 17.1027 9.64234 17.0194 9.71735C16.936 9.79237 16.8892 9.89411 16.8892 10.0002C16.8892 10.1063 16.936 10.208 17.0194 10.283C17.1027 10.3581 17.2158 10.4002 17.3337 10.4002ZM3.11096 10.4002H14.6669C14.7848 10.4002 14.8978 10.3581 14.9812 10.283C15.0645 10.208 15.1114 10.1063 15.1114 10.0002C15.1114 9.89411 15.0645 9.79237 14.9812 9.71735C14.8978 9.64234 14.7848 9.6002 14.6669 9.6002H3.11096C2.99309 9.6002 2.88004 9.64234 2.79668 9.71735C2.71333 9.79237 2.6665 9.89411 2.6665 10.0002C2.6665 10.1063 2.71333 10.208 2.79668 10.283C2.88004 10.3581 2.99309 10.4002 3.11096 10.4002ZM3.11096 12.8002H14.6669C14.7848 12.8002 14.8978 12.7581 14.9812 12.683C15.0645 12.608 15.1114 12.5063 15.1114 12.4002C15.1114 12.2941 15.0645 12.1924 14.9812 12.1174C14.8978 12.0423 14.7848 12.0002 14.6669 12.0002H3.11096C2.99309 12.0002 2.88004 12.0423 2.79668 12.1174C2.71333 12.1924 2.6665 12.2941 2.6665 12.4002C2.6665 12.5063 2.71333 12.608 2.79668 12.683C2.88004 12.7581 2.99309 12.8002 3.11096 12.8002ZM3.11096 17.6002H11.1112C11.2291 17.6002 11.3422 17.5581 11.4255 17.483C11.5089 17.408 11.5557 17.3063 11.5557 17.2002C11.5557 17.0941 11.5089 16.9924 11.4255 16.9174C11.3422 16.8423 11.2291 16.8002 11.1112 16.8002H3.11096C2.99309 16.8002 2.88004 16.8423 2.79668 16.9174C2.71333 16.9924 2.6665 17.0941 2.6665 17.2002C2.6665 17.3063 2.71333 17.408 2.79668 17.483C2.88004 17.5581 2.99309 17.6002 3.11096 17.6002ZM3.11096 15.2002H12.0001C12.118 15.2002 12.2311 15.1581 12.3144 15.083C12.3978 15.008 12.4446 14.9063 12.4446 14.8002C12.4446 14.6941 12.3978 14.5924 12.3144 14.5174C12.2311 14.4423 12.118 14.4002 12.0001 14.4002H3.11096C2.99309 14.4002 2.88004 14.4423 2.79668 14.5174C2.71333 14.5924 2.6665 14.6941 2.6665 14.8002C2.6665 14.9063 2.71333 15.008 2.79668 15.083C2.88004 15.1581 2.99309 15.2002 3.11096 15.2002ZM3.11096 8.0002H14.6669C14.7848 8.0002 14.8978 7.95805 14.9812 7.88304C15.0645 7.80802 15.1114 7.70628 15.1114 7.6002C15.1114 7.49411 15.0645 7.39237 14.9812 7.31735C14.8978 7.24234 14.7848 7.2002 14.6669 7.2002H3.11096C2.99309 7.2002 2.88004 7.24234 2.79668 7.31735C2.71333 7.39237 2.6665 7.49411 2.6665 7.6002C2.6665 7.70628 2.71333 7.80802 2.79668 7.88304C2.88004 7.95805 2.99309 8.0002 3.11096 8.0002ZM18.2226 24.0002C15.0367 24.0002 12.4446 21.6674 12.4446 18.8002C12.4446 15.933 15.0367 13.6002 18.2226 13.6002C19.227 13.6002 20.2173 13.8362 21.0849 14.2826C21.137 14.3079 21.183 14.3424 21.2201 14.384C21.2572 14.4256 21.2847 14.4734 21.301 14.5247C21.3172 14.576 21.3219 14.6296 21.3148 14.6826C21.3077 14.7355 21.2889 14.7866 21.2595 14.8329C21.2301 14.8792 21.1907 14.9198 21.1436 14.9522C21.0966 14.9846 21.0428 15.0082 20.9854 15.0216C20.9281 15.035 20.8683 15.038 20.8097 15.0303C20.7511 15.0227 20.6947 15.0045 20.644 14.977C19.9061 14.599 19.0716 14.4002 18.2226 14.4002C15.5265 14.4002 13.3335 16.3738 13.3335 18.8002C13.3335 21.2266 15.5265 23.2002 18.2226 23.2002C18.9688 23.1995 19.705 23.0452 20.3748 22.7491C21.0446 22.453 21.6304 22.023 22.0872 21.492C22.544 20.961 22.8599 20.3429 23.0107 19.6852C23.1614 19.0274 23.143 18.3474 22.9569 17.697C22.9424 17.6461 22.939 17.5932 22.9472 17.5412C22.9553 17.4892 22.9748 17.4392 23.0044 17.3939C23.034 17.3487 23.0733 17.3091 23.1199 17.2775C23.1665 17.2459 23.2196 17.2229 23.2761 17.2098C23.3326 17.1967 23.3914 17.1937 23.4492 17.201C23.507 17.2083 23.5626 17.2258 23.6128 17.2525C23.6631 17.2792 23.707 17.3145 23.7422 17.3564C23.7773 17.3984 23.8028 17.4461 23.8174 17.497C24.0371 18.2656 24.0586 19.0691 23.8803 19.8463C23.702 20.6235 23.3287 21.3537 22.7889 21.9812C22.2491 22.6087 21.557 23.1168 20.7656 23.4667C19.9742 23.8166 19.1043 23.9991 18.2226 24.0002Z" fill="#AEAEB2"/>
<path d="M18.2227 20.5592H18.2121C18.1486 20.5577 18.0862 20.5441 18.0291 20.5193C17.9719 20.4945 17.9212 20.459 17.8805 20.4152L15.6582 18.0152C15.5832 17.9334 15.5471 17.8283 15.5578 17.7226C15.5684 17.617 15.625 17.5195 15.7151 17.4512C15.806 17.3837 15.9228 17.3512 16.0401 17.3608C16.1575 17.3704 16.2659 17.4212 16.3418 17.5024L18.2379 19.5512L23.1696 14.6592C23.2493 14.581 23.3602 14.5345 23.478 14.5299C23.5957 14.5253 23.7107 14.5631 23.7976 14.6348C23.8845 14.7065 23.9361 14.8063 23.9412 14.9123C23.9463 15.0183 23.9044 15.1218 23.8247 15.2L18.5499 20.4296C18.5084 20.4706 18.4579 20.5033 18.4016 20.5256C18.3452 20.5479 18.2843 20.5594 18.2227 20.5592ZM5.77788 5.59998H0.463042C0.375203 5.59996 0.28934 5.57652 0.216294 5.53262C0.143247 5.48871 0.0862937 5.42631 0.0526245 5.3533C0.0189553 5.28029 0.0100803 5.19993 0.0271203 5.12238C0.0441602 5.04483 0.0863509 4.97356 0.148365 4.91758L5.46321 0.117577C5.54692 0.0445999 5.65913 0.0041333 5.77567 0.00489333C5.89221 0.00565336 6.00376 0.0475792 6.08628 0.12164C6.16881 0.195701 6.21571 0.295972 6.21688 0.400853C6.21806 0.505734 6.17341 0.606834 6.09256 0.682377L1.53419 4.79998H5.33342V2.39998C5.33342 2.29389 5.38025 2.19215 5.4636 2.11713C5.54696 2.04212 5.66001 1.99998 5.77788 1.99998C5.89576 1.99998 6.00881 2.04212 6.09216 2.11713C6.17552 2.19215 6.22234 2.29389 6.22234 2.39998V5.19998C6.22234 5.30606 6.17552 5.40781 6.09216 5.48282C6.00881 5.55783 5.89576 5.59998 5.77788 5.59998Z" fill="#AEAEB2"/>
</svg>
