<svg width="25" height="25" viewBox="0 0 25 25" fill="none" xmlns="http://www.w3.org/2000/svg">
<path d="M12.5 0.735352C8.82351 0.735352 5.88233 3.67653 5.88233 7.353V10.2942C4.63233 10.2942 3.67645 11.2501 3.67645 12.5001V22.0589C3.67645 23.3089 4.63233 24.2648 5.88233 24.2648H19.1176C20.3676 24.2648 21.3235 23.3089 21.3235 22.0589V12.5001C21.3235 11.2501 20.3676 10.2942 19.1176 10.2942V7.353C19.1176 3.67653 16.1765 0.735352 12.5 0.735352ZM19.8529 12.5001V22.0589C19.8529 22.5001 19.5588 22.7942 19.1176 22.7942H5.88233C5.44116 22.7942 5.14704 22.5001 5.14704 22.0589V12.5001C5.14704 12.0589 5.44116 11.7648 5.88233 11.7648H19.1176C19.5588 11.7648 19.8529 12.0589 19.8529 12.5001ZM7.35292 10.2942V7.353C7.35292 4.48535 9.63233 2.20594 12.5 2.20594C15.3676 2.20594 17.647 4.48535 17.647 7.353V10.2942H7.35292Z" fill="#617490"/>
<path d="M12.5 13.9707C11.25 13.9707 10.2941 14.9266 10.2941 16.1766C10.2941 17.1325 10.8824 17.9413 11.7647 18.2354V19.8531C11.7647 20.2942 12.0588 20.5884 12.5 20.5884C12.9412 20.5884 13.2353 20.2942 13.2353 19.8531V18.2354C14.1177 17.9413 14.7059 17.1325 14.7059 16.1766C14.7059 14.9266 13.75 13.9707 12.5 13.9707ZM12.5 16.9119C12.0588 16.9119 11.7647 16.6178 11.7647 16.1766C11.7647 15.7354 12.0588 15.4413 12.5 15.4413C12.9412 15.4413 13.2353 15.7354 13.2353 16.1766C13.2353 16.6178 12.9412 16.9119 12.5 16.9119Z" fill="#617490"/>
</svg>
