<svg width="18" height="22" viewBox="0 0 18 22" fill="none" xmlns="http://www.w3.org/2000/svg">
<path d="M14.8438 0H2.34375C1.72215 0 1.12601 0.24693 0.686469 0.686469C0.24693 1.12601 0 1.72215 0 2.34375V19.5312C0 20.1529 0.24693 20.749 0.686469 21.1885C1.12601 21.6281 1.72215 21.875 2.34375 21.875H11.7188C11.9256 21.8721 12.1237 21.7912 12.2734 21.6484L16.9609 16.9609C17.0333 16.8879 17.0906 16.8014 17.1295 16.7062C17.1684 16.611 17.1881 16.5091 17.1875 16.4062V2.34375C17.1875 1.72215 16.9406 1.12601 16.501 0.686469C16.0615 0.24693 15.4654 0 14.8438 0ZM1.5625 19.5312V2.34375C1.5625 2.13655 1.64481 1.93784 1.79132 1.79132C1.93784 1.64481 2.13655 1.5625 2.34375 1.5625H14.8438C15.051 1.5625 15.2497 1.64481 15.3962 1.79132C15.5427 1.93784 15.625 2.13655 15.625 2.34375V15.625H13.2812C12.6596 15.625 12.0635 15.8719 11.624 16.3115C11.1844 16.751 10.9375 17.3471 10.9375 17.9688V20.3125H2.34375C2.13655 20.3125 1.93784 20.2302 1.79132 20.0837C1.64481 19.9372 1.5625 19.7385 1.5625 19.5312ZM14.5234 17.1875L12.5 19.2109V17.9688C12.5 17.7615 12.5823 17.5628 12.7288 17.4163C12.8753 17.2698 13.074 17.1875 13.2812 17.1875H14.5234Z" fill="#617492"/>
<path d="M9.17968 11.4141L7.36718 6.72656C7.30959 6.58084 7.20951 6.45581 7.07994 6.3677C6.95038 6.27958 6.79731 6.23247 6.64062 6.23247C6.48393 6.23247 6.33086 6.27958 6.2013 6.3677C6.07173 6.45581 5.97165 6.58084 5.91406 6.72656L3.17968 13.7578C3.13356 13.8549 3.10796 13.9604 3.10449 14.0679C3.10102 14.1753 3.11975 14.2823 3.15951 14.3821C3.19927 14.482 3.2592 14.5725 3.33557 14.6482C3.41193 14.7238 3.50307 14.7829 3.6033 14.8217C3.70353 14.8605 3.81069 14.8782 3.91807 14.8737C4.02546 14.8692 4.13075 14.8425 4.22738 14.7955C4.32401 14.7484 4.40989 14.6819 4.47965 14.6002C4.54941 14.5184 4.60155 14.4231 4.63281 14.3203L5.35156 12.5H7.92968L8.64843 14.3438C8.70509 14.4906 8.80476 14.6169 8.93441 14.7061C9.06405 14.7953 9.21762 14.8433 9.375 14.8437C9.47147 14.8446 9.56712 14.826 9.65625 14.7891C9.84857 14.714 10.0034 14.5659 10.0868 14.377C10.1703 14.1882 10.1756 13.974 10.1016 13.7812L9.17968 11.4141ZM5.96093 10.9375L6.64062 9.1875L7.32031 10.9375H5.96093ZM10.1562 7.8125H10.9375V8.59375C10.9375 8.80095 11.0198 8.99966 11.1663 9.14618C11.3128 9.29269 11.5115 9.375 11.7187 9.375C11.9259 9.375 12.1247 9.29269 12.2712 9.14618C12.4177 8.99966 12.5 8.80095 12.5 8.59375V7.8125H13.2812C13.4884 7.8125 13.6872 7.73019 13.8337 7.58368C13.9802 7.43716 14.0625 7.23845 14.0625 7.03125C14.0625 6.82405 13.9802 6.62534 13.8337 6.47882C13.6872 6.33231 13.4884 6.25 13.2812 6.25H12.5V5.46875C12.5 5.26155 12.4177 5.06284 12.2712 4.91632C12.1247 4.76981 11.9259 4.6875 11.7187 4.6875C11.5115 4.6875 11.3128 4.76981 11.1663 4.91632C11.0198 5.06284 10.9375 5.26155 10.9375 5.46875V6.25H10.1562C9.94905 6.25 9.75033 6.33231 9.60382 6.47882C9.4573 6.62534 9.375 6.82405 9.375 7.03125C9.375 7.23845 9.4573 7.43716 9.60382 7.58368C9.75033 7.73019 9.94905 7.8125 10.1562 7.8125Z" fill="#617492"/>
</svg>
