<svg width="22" height="25" viewBox="0 0 22 25" fill="none" xmlns="http://www.w3.org/2000/svg">
<path d="M21.2662 5.22612L16.1587 0.209814C16.0217 0.0753096 15.8374 -3.42952e-05 15.6454 1.17108e-08L2.73281 1.17108e-08C1.22607 1.17108e-08 0 1.22583 0 2.73286V22.2671C0 23.774 1.22583 25 2.73286 25H18.7524C20.2593 25 21.4853 23.7742 21.4853 22.2671V5.74873C21.4853 5.65143 21.4659 5.5551 21.4283 5.46537C21.3907 5.37564 21.3355 5.29431 21.2661 5.22612H21.2662ZM16.3778 2.47842L18.9619 5.01631H16.6107C16.549 5.01622 16.4898 4.99165 16.4461 4.94799C16.4025 4.90433 16.3779 4.84514 16.3778 4.7834V2.47842ZM18.7525 23.5352H2.73286C2.03379 23.5352 1.46484 22.9664 1.46484 22.2671V2.73291C1.46484 2.03364 2.03359 1.46484 2.73286 1.46484H14.9132V4.78345C14.9132 5.71958 15.6748 6.4812 16.6109 6.4812H20.0205V22.2671C20.0205 22.9663 19.4517 23.5351 18.7524 23.5351L18.7525 23.5352Z" fill="#617492"/>
<path d="M15.8274 11.6211H5.50244C5.0979 11.6211 4.77002 11.949 4.77002 12.3535C4.77002 12.7581 5.0979 13.0859 5.50244 13.0859H15.8273C16.2319 13.0859 16.5598 12.7581 16.5598 12.3535C16.5598 11.949 16.2319 11.6211 15.8274 11.6211ZM5.50249 16.0156H13.9211C14.3257 16.0156 14.6536 15.6877 14.6536 15.2832C14.6536 14.8787 14.3257 14.5508 13.9211 14.5508H5.50249C5.09795 14.5508 4.77007 14.8787 4.77007 15.2832C4.77007 15.6877 5.09795 16.0156 5.50249 16.0156ZM14.9368 17.4805H5.50249C5.09795 17.4805 4.77007 17.8083 4.77007 18.2129C4.77007 18.6174 5.09795 18.9453 5.50249 18.9453H14.9368C15.3412 18.9453 15.6692 18.6174 15.6692 18.2129C15.6692 17.8083 15.3412 17.4805 14.9368 17.4805Z" fill="#617492"/>
</svg>
