<svg width="24" height="20" viewBox="0 0 24 20" fill="none" xmlns="http://www.w3.org/2000/svg">
<path d="M21.9263 8.1075C21.8383 8.01954 21.7191 7.97002 21.5948 7.96973C21.4711 7.96973 21.3506 8.0196 21.2629 8.1075C21.1754 8.19586 21.1262 8.3153 21.126 8.43984C21.126 8.56346 21.1758 8.68478 21.2629 8.77222C21.3512 8.86007 21.4705 8.90954 21.5948 8.90994C21.7181 8.90994 21.8386 8.85969 21.9263 8.77222C22.0135 8.68478 22.0632 8.56351 22.0632 8.43984C22.0632 8.31574 22.0135 8.19489 21.9263 8.1075ZM11.1596 19.1787C11.0716 19.0907 10.9525 19.0412 10.8282 19.0409C10.7037 19.0411 10.5844 19.0906 10.4963 19.1787C10.4087 19.267 10.3595 19.3865 10.3594 19.511C10.3594 19.6346 10.4091 19.7559 10.4963 19.8434C10.5846 19.9312 10.7038 19.9807 10.8282 19.9811C10.9515 19.9811 11.072 19.9309 11.1596 19.8434C11.2468 19.756 11.2965 19.6347 11.2965 19.511C11.2964 19.3865 11.2472 19.267 11.1596 19.1787Z" fill="#AEAEB2"/>
<path d="M23.0617 3.66893C22.9337 3.4432 22.6474 3.36433 22.4225 3.49265C22.1974 3.62098 22.1187 3.908 22.2467 4.13368C23.6392 6.58918 23.2188 9.70099 21.2244 11.701L20.8689 12.0574C20.7807 11.8248 20.6443 11.6136 20.4688 11.4378L15.6521 6.60766C15.9712 6.45017 16.2623 6.24104 16.5136 5.98868L17.4375 5.06224C17.6205 4.87868 17.6205 4.58099 17.4375 4.39743C17.2544 4.21387 16.9576 4.21387 16.7745 4.39743L15.8506 5.32387C15.4166 5.75906 14.8396 5.99874 14.2259 5.99874H12.3792C12.2548 5.99877 12.1356 6.04829 12.0477 6.13642L10.6339 7.55413C10.2141 7.97516 9.531 7.97516 9.11119 7.55413C8.69133 7.13314 8.69133 6.44812 9.11119 6.02713L12.3388 2.79052C14.3113 0.812502 17.3906 0.377507 19.827 1.73269C20.0534 1.85853 20.3387 1.77669 20.4643 1.54961C20.5899 1.32257 20.5081 1.03639 20.2817 0.910463C18.9379 0.163111 17.3547 -0.135989 15.8234 0.068535C14.3903 0.259897 13.0786 0.861623 12.0034 1.81641C10.6825 0.642151 9.00094 0 7.22062 0C5.29191 0 3.47869 0.75318 2.11486 2.12078C0.751031 3.48838 0 5.30681 0 7.24088C0 9.17499 0.751078 10.9933 2.11486 12.3609L2.29153 12.5381C2.32158 12.568 2.35552 12.5937 2.39245 12.6145C2.42381 13.0212 2.59373 13.4191 2.90325 13.7294C3.24773 14.0748 3.69998 14.2474 4.15237 14.2474C4.17586 14.2474 4.19939 14.2467 4.22287 14.2457C4.22194 14.2695 4.22114 14.2933 4.22114 14.3172C4.22114 14.7904 4.40489 15.2353 4.73855 15.5699C5.08303 15.9153 5.53528 16.0879 5.98767 16.0879C6.01116 16.0879 6.03469 16.0871 6.05817 16.0862C6.05723 16.11 6.05644 16.1337 6.05644 16.1577C6.05644 16.6308 6.24019 17.0757 6.57389 17.4103C6.91833 17.7556 7.37067 17.9283 7.82302 17.9283C7.84678 17.9283 7.87055 17.9275 7.89431 17.9266C7.87528 18.4038 8.0467 18.8873 8.40919 19.2508C8.74289 19.5854 9.18651 19.7697 9.65831 19.7697C10.1302 19.7697 10.5738 19.5854 10.9074 19.2508L11.5626 18.5938L12.4476 19.4811C12.7812 19.8157 13.2248 20 13.6967 20C14.1685 20 14.6122 19.8157 14.9458 19.4811C15.3127 19.1133 15.484 18.6225 15.4601 18.1397C15.4896 18.1412 15.5191 18.142 15.5486 18.142C16.001 18.142 16.4534 17.9694 16.7978 17.624C17.1601 17.2607 17.3315 16.7775 17.3127 16.3006C17.3364 16.3016 17.3601 16.3024 17.384 16.3024C17.8558 16.3024 18.2994 16.1181 18.6331 15.7835C18.9954 15.4202 19.1668 14.9371 19.148 14.4601C19.1717 14.4611 19.1954 14.4619 19.2193 14.4619C19.6911 14.4619 20.1347 14.2776 20.4684 13.943C20.6328 13.7784 20.763 13.5827 20.8515 13.3673C20.8983 13.3446 20.9411 13.3142 20.9779 13.2774L21.887 12.3657C24.1792 10.0675 24.6622 6.49122 23.0617 3.66893ZM4.15242 13.3081C4.04351 13.3084 3.93562 13.287 3.83499 13.2452C3.73437 13.2034 3.64301 13.142 3.5662 13.0646C3.48898 12.9876 3.42776 12.8959 3.38609 12.795C3.34441 12.6942 3.3231 12.586 3.32339 12.4768C3.32339 12.2547 3.40959 12.0459 3.5662 11.8889L4.37405 11.0788C4.45085 11.0014 4.5422 10.94 4.64283 10.8982C4.74345 10.8564 4.85135 10.835 4.96027 10.8353C5.18166 10.8353 5.38987 10.9218 5.54644 11.0788C5.86969 11.403 5.86969 11.9304 5.54644 12.2545L4.73859 13.0646C4.66179 13.142 4.57044 13.2034 4.46982 13.2452C4.36921 13.287 4.26132 13.3084 4.15242 13.3081ZM5.40164 14.9051C5.32442 14.8281 5.26319 14.7365 5.22151 14.6356C5.17983 14.5347 5.15853 14.4265 5.15883 14.3173C5.15883 14.0952 5.24503 13.8865 5.40164 13.7295L6.20953 12.9193V12.9193C6.28633 12.8418 6.37768 12.7804 6.4783 12.7387C6.57891 12.6969 6.6868 12.6755 6.7957 12.6758C7.01709 12.6758 7.22531 12.7622 7.38187 12.9193C7.70512 13.2434 7.70512 13.7708 7.38187 14.0949L6.57403 14.905C6.25073 15.2292 5.7247 15.2292 5.40164 14.9051ZM7.23694 16.7455C7.15971 16.6685 7.09849 16.5769 7.05681 16.476C7.01513 16.3751 6.99382 16.2669 6.99412 16.1577C6.99412 15.9357 7.08033 15.7269 7.23694 15.5699L8.04483 14.7597C8.12163 14.6823 8.21298 14.6209 8.31359 14.5791C8.41421 14.5373 8.52209 14.5159 8.631 14.5162C8.85244 14.5162 9.06061 14.6027 9.21717 14.7597C9.54042 15.0839 9.54042 15.6113 9.21717 15.9354L8.40928 16.7455C8.08608 17.0697 7.56019 17.0697 7.23694 16.7455ZM11.0525 17.7759L10.2446 18.5861C10.1678 18.6635 10.0765 18.7249 9.97586 18.7667C9.87524 18.8085 9.76736 18.8299 9.65845 18.8296C9.54954 18.8299 9.44166 18.8085 9.34104 18.7667C9.24042 18.7249 9.14907 18.6635 9.07228 18.5861C8.74903 18.2619 8.74903 17.7345 9.07228 17.4104L9.88017 16.6003C9.95697 16.5228 10.0483 16.4614 10.1489 16.4196C10.2496 16.3778 10.3574 16.3564 10.4663 16.3567C10.6877 16.3567 10.896 16.4432 11.0525 16.6002C11.1297 16.6772 11.191 16.7688 11.2326 16.8697C11.2743 16.9706 11.2956 17.0788 11.2953 17.188C11.2957 17.2973 11.2744 17.4055 11.2327 17.5064C11.191 17.6073 11.1298 17.6989 11.0525 17.7759ZM19.8058 13.2782C19.729 13.3557 19.6376 13.417 19.537 13.4588C19.4364 13.5006 19.3285 13.522 19.2196 13.5217C19.1107 13.522 19.0028 13.5006 18.9022 13.4589C18.8016 13.4171 18.7102 13.3557 18.6334 13.2782L16.6822 11.3215L16.6819 11.3212L14.8468 9.48096C14.6637 9.2974 14.3669 9.2974 14.1838 9.48096C14.0007 9.66452 14.0007 9.96221 14.1838 10.1458L17.9704 13.9429C18.2937 14.2671 18.2937 14.7945 17.9704 15.1186C17.8936 15.196 17.8023 15.2574 17.7017 15.2992C17.601 15.341 17.4932 15.3624 17.3842 15.3621C17.2753 15.3624 17.1675 15.341 17.0668 15.2992C16.9662 15.2574 16.8749 15.196 16.7981 15.1186L13.0114 11.3214C12.8283 11.1379 12.5316 11.1379 12.3484 11.3214C12.1654 11.5049 12.1654 11.8026 12.3484 11.9862L14.1834 13.8263L14.1838 13.8268L16.1351 15.7835C16.4584 16.1077 16.4584 16.6351 16.1352 16.9592C15.8119 17.2833 15.2859 17.2833 14.9628 16.9592L13.0115 15.0024C12.9764 14.9673 12.9359 14.938 12.8917 14.9156L12.3351 14.3575C12.152 14.174 11.8552 14.174 11.6721 14.3575C11.4891 14.541 11.4891 14.8387 11.6721 15.0223L14.2831 17.6406C14.6064 17.9648 14.6064 18.4921 14.2831 18.8162C14.2063 18.8937 14.115 18.9551 14.0144 18.9969C13.9138 19.0387 13.8059 19.06 13.697 19.0597C13.5881 19.06 13.4802 19.0387 13.3796 18.9969C13.2789 18.9551 13.1876 18.8937 13.1108 18.8162L12.1172 17.8199C12.1939 17.6181 12.2331 17.404 12.233 17.188C12.233 16.7148 12.0492 16.27 11.7156 15.9354C11.3819 15.6008 10.9382 15.4165 10.4664 15.4165C10.4426 15.4165 10.4189 15.4173 10.3951 15.4183C10.4139 14.9413 10.2426 14.4582 9.88027 14.0949C9.54656 13.7603 9.10294 13.576 8.63114 13.576C8.60728 13.576 8.58356 13.5768 8.55984 13.5778C8.57869 13.1009 8.40727 12.6177 8.04497 12.2544C7.71127 11.9198 7.26764 11.7356 6.79584 11.7356C6.77198 11.7356 6.74827 11.7364 6.72455 11.7373C6.74339 11.2604 6.57197 10.7772 6.20967 10.4139C5.52089 9.72323 4.40006 9.72327 3.71128 10.4139L2.90344 11.224C2.80382 11.324 2.71649 11.4356 2.64333 11.5564C1.54219 10.3836 0.937781 8.85883 0.937781 7.24078C0.937781 5.55782 1.59131 3.97555 2.77809 2.78554C3.96478 1.59553 5.54269 0.940123 7.22091 0.940123C8.74603 0.940123 10.1882 1.48145 11.3292 2.47337L8.44842 5.36223C8.06798 5.74378 7.85845 6.25102 7.85845 6.79056C7.85845 7.33014 8.06798 7.83739 8.44842 8.21894C8.84114 8.61271 9.357 8.80962 9.87281 8.80962C10.3886 8.80962 10.9045 8.61275 11.2972 8.21894L12.5737 6.93886H14.2262C14.3626 6.93886 14.4976 6.92951 14.6309 6.91292L19.806 12.1024C20.129 12.4267 20.129 12.9542 19.8058 13.2782Z" fill="#AEAEB2"/>
</svg>
