<svg width="23" height="18" viewBox="0 0 23 18" fill="none" xmlns="http://www.w3.org/2000/svg">
<path d="M22.0305 13.4211V7.47347L22.2156 7.37464C22.6086 7.16553 22.843 6.79242 22.843 6.37634C22.843 5.96025 22.6086 5.58643 22.2156 5.37731L12.718 0.31989C12.3241 0.110359 11.8769 0 11.4215 0C10.9661 0 10.5188 0.110359 10.125 0.31989L0.626562 5.37803C0.234375 5.58714 0 5.96025 0 6.37634C0 6.79242 0.234375 7.16553 0.626562 7.37536L3.50625 8.90934V12.475C3.50691 12.8826 3.62431 13.2828 3.84669 13.6357C4.06907 13.9886 4.38864 14.2818 4.77344 14.486L8.7375 16.5807C9.56484 17.0175 10.493 17.2367 11.4211 17.2367C12.3492 17.2367 13.2766 17.0183 14.1047 16.5807L18.068 14.486C18.453 14.282 18.7728 13.9889 18.9954 13.636C19.2179 13.283 19.3354 12.8827 19.3359 12.475V8.90863L20.6242 8.22256V13.4211C20.403 13.5589 20.2358 13.7581 20.1472 13.9895C20.0586 14.2208 20.0532 14.4721 20.1319 14.7065C20.2105 14.9408 20.3691 15.1459 20.5842 15.2916C20.7994 15.4372 21.0599 15.5159 21.3273 15.5159C21.5948 15.5159 21.8553 15.4372 22.0704 15.2916C22.2856 15.1459 22.4442 14.9408 22.5228 14.7065C22.6015 14.4721 22.5961 14.2208 22.5075 13.9895C22.4189 13.7581 22.2517 13.5589 22.0305 13.4211ZM17.9305 12.4743H17.9297C17.9297 12.8424 17.7148 13.1847 17.3664 13.3681L13.4031 15.4628C12.8001 15.7799 12.117 15.9467 11.4219 15.9467C10.7267 15.9467 10.0436 15.7799 9.44063 15.4628L5.47656 13.3681C5.30545 13.2774 5.16334 13.1471 5.06447 12.9903C4.96561 12.8334 4.91347 12.6555 4.91328 12.4743V9.65772L10.125 12.4335C10.519 12.643 10.9664 12.7534 11.4219 12.7534C11.8774 12.7534 12.3248 12.643 12.7188 12.4335L17.9305 9.65772V12.4743ZM12.0117 11.3192C11.8324 11.4145 11.6288 11.4647 11.4215 11.4647C11.2142 11.4647 11.0106 11.4145 10.8313 11.3192L1.55078 6.37634L10.8305 1.4335C11.0098 1.33817 11.2134 1.28797 11.4207 1.28797C11.628 1.28797 11.8316 1.33817 12.0109 1.4335L21.2914 6.37562L12.0117 11.3192Z" fill="#617492"/>
</svg>
