<svg width="25" height="19" viewBox="0 0 25 19" fill="none" xmlns="http://www.w3.org/2000/svg">
<path d="M24.161 2.50642L22.4086 2.50634V0.84346C22.4086 0.659245 22.3365 0.481148 22.2053 0.341577C22.0742 0.202005 21.8927 0.110236 21.694 0.0829687C21.6222 0.0730922 19.915 -0.154222 17.8592 0.188678C15.5674 0.57093 13.7396 1.5136 12.5 2.93867C11.2602 1.5136 9.43246 0.57093 7.14072 0.188678C5.08483 -0.154145 3.3776 0.0730922 3.30597 0.0829687C3.10723 0.110266 2.92579 0.202044 2.79464 0.341609C2.66349 0.481174 2.59134 0.659254 2.59132 0.84346V2.50634H0.838886C0.375672 2.50634 1.16181e-09 2.85071 1.16181e-09 3.2754V17.7665C-7.04408e-06 17.8892 0.0320278 18.0101 0.0934275 18.1192C0.154827 18.2282 0.243809 18.3222 0.352936 18.3933C0.462063 18.4644 0.588167 18.5105 0.720709 18.5278C0.853251 18.5451 0.988383 18.5331 1.11481 18.4927C1.17777 18.4727 7.4642 16.5061 12.1518 18.4661C12.2611 18.5118 12.3799 18.5355 12.5 18.5355C12.6201 18.5355 12.7389 18.5118 12.8482 18.4661C17.5227 16.5116 23.8226 18.4729 23.8852 18.4927C24.0116 18.533 24.1467 18.5451 24.2793 18.5278C24.4118 18.5105 24.5379 18.4644 24.6471 18.3934C24.7562 18.3223 24.8452 18.2283 24.9066 18.1193C24.968 18.0102 25 17.8893 25 17.7666V3.27547C24.9999 2.85078 24.6243 2.50642 24.161 2.50642ZM1.67786 16.7375V4.04437H2.59132V14.2855C2.59144 14.396 2.61749 14.5051 2.66772 14.6055C2.71795 14.7058 2.79117 14.7951 2.8824 14.8673C2.97363 14.9395 3.08077 14.9929 3.19652 15.0237C3.31227 15.0546 3.43392 15.0623 3.55319 15.0462C3.59948 15.04 7.24392 14.5814 9.90653 16.256C6.62666 15.7419 3.34401 16.3365 1.67786 16.7375ZM11.6611 15.5625C10.4883 14.5912 8.96083 13.9344 7.14072 13.6308C6.26479 13.4847 5.45217 13.4421 4.80234 13.4421C4.60941 13.4421 4.43079 13.4459 4.26926 13.4518V1.54963H4.26918C5.88155 1.48296 9.80384 1.64099 11.6611 4.52701V15.5625ZM13.3388 4.52709C15.1894 1.65341 19.1179 1.48821 20.7307 1.55156V13.4518C20.0251 13.4257 18.9951 13.4413 17.8592 13.6308C16.0391 13.9344 14.5116 14.5911 13.3388 15.5625V4.52709ZM15.0906 16.2564C17.7536 14.5808 21.3999 15.0399 21.4454 15.0461C21.5647 15.0625 21.6865 15.0551 21.8025 15.0244C21.9184 14.9937 22.0258 14.9405 22.1172 14.8683C22.2087 14.7961 22.282 14.7066 22.3323 14.6061C22.3826 14.5055 22.4086 14.3962 22.4086 14.2855V4.04445H23.3221V16.7375C21.6554 16.3364 18.3714 15.7415 15.0906 16.2564Z" fill="#617492"/>
</svg>
