<svg width="24" height="24" viewBox="0 0 24 24" fill="none" xmlns="http://www.w3.org/2000/svg">
<mask id="mask0_559_418" style="mask-type:luminance" maskUnits="userSpaceOnUse" x="1" y="1" width="23" height="23">
<path d="M1.01013 1.08203H23.3661V23.438H1.01013V1.08203Z" fill="white"/>
</mask>
<g mask="url(#mask0_559_418)">
<path d="M3.62507 2.38037L20.7502 19.5055L19.4334 20.8233L15.9425 17.3324L12.1876 21.096L4.28943 13.1858C3.37129 12.1561 2.86646 10.8232 2.8721 9.44361C2.87774 8.06402 3.39345 6.73527 4.31998 5.7131L2.30725 3.69819L3.62507 2.38037ZM5.64871 11.9095L12.1876 18.4593L14.6258 16.0156L5.63998 7.03092C5.05479 7.70928 4.73348 8.57572 4.73489 9.47161C4.73629 10.3675 5.06139 11.2329 5.64871 11.9095ZM19.8654 5.51346C20.8745 6.52265 21.4593 7.87955 21.5001 9.30606C21.5408 10.7326 21.0344 12.1207 20.0847 13.1858L18.5618 14.7098L17.2451 13.392L18.7254 11.9095C19.3458 11.1943 19.6706 10.2698 19.6338 9.32379C19.5971 8.37778 19.2016 7.48125 18.5277 6.81635C17.8537 6.15145 16.9519 5.76806 16.0055 5.74408C15.0591 5.72011 14.1391 6.05735 13.4323 6.68728L12.1887 7.80328L10.944 6.68837C10.6271 6.40347 10.2631 6.17572 9.86834 6.01528L7.7738 3.91855C8.56581 3.81997 9.36975 3.89244 10.1314 4.13107C10.893 4.3697 11.5945 4.76893 12.1887 5.30183C13.253 4.34899 14.6418 3.83995 16.0697 3.87931C17.4977 3.91868 18.8563 4.50344 19.8665 5.51346H19.8654Z" fill="#AEAEB2"/>
</g>
</svg>
