<svg width="25" height="25" viewBox="0 0 25 25" fill="none" xmlns="http://www.w3.org/2000/svg">
<path d="M17.0445 12.0898C18.1391 10.9346 18.7495 9.40392 18.75 7.8125C18.75 4.36641 15.9461 1.5625 12.5 1.5625C9.05391 1.5625 6.25 4.36641 6.25 7.8125C6.25 9.46797 6.90156 10.9703 7.95547 12.0898C4.83203 13.8328 3.125 17.525 3.125 22.6562C3.125 22.8635 3.20731 23.0622 3.35382 23.2087C3.50034 23.3552 3.69905 23.4375 3.90625 23.4375H21.0938C21.301 23.4375 21.4997 23.3552 21.6462 23.2087C21.7927 23.0622 21.875 22.8635 21.875 22.6562C21.875 17.5242 20.168 13.8328 17.0445 12.0898ZM12.5 3.125C15.0852 3.125 17.1875 5.22734 17.1875 7.8125C17.1875 10.3977 15.0852 12.5 12.5 12.5C9.91484 12.5 7.8125 10.3977 7.8125 7.8125C7.8125 5.22734 9.91484 3.125 12.5 3.125ZM4.70156 21.875C4.82422 18.5672 5.78594 14.693 9.29766 13.1695C10.2352 13.7328 11.3289 14.0625 12.5 14.0625C13.6711 14.0625 14.7648 13.7328 15.7023 13.1695C19.2133 14.6922 20.1758 18.5672 20.2977 21.875H4.70156Z" fill="#617492"/>
</svg>
