<svg width="25" height="25" viewBox="0 0 25 25" fill="none" xmlns="http://www.w3.org/2000/svg">
<path d="M19.1641 18.0937C19.0289 18.0938 18.8958 18.0611 18.7761 17.9985C18.6564 17.936 18.5536 17.8453 18.4766 17.7343C18.2245 17.3707 17.8882 17.0736 17.4964 16.8682C17.1046 16.6627 16.6689 16.5552 16.2266 16.5546H13.7734C13.3311 16.5552 12.8954 16.6627 12.5036 16.8682C12.1118 17.0736 11.7755 17.3707 11.5234 17.7343C11.4652 17.8338 11.3869 17.9202 11.2936 17.9881C11.2003 18.0559 11.094 18.1037 10.9813 18.1285C10.8687 18.1532 10.7521 18.1544 10.639 18.1319C10.5258 18.1094 10.4186 18.0637 10.3239 17.9977C10.2293 17.9318 10.1494 17.8469 10.0891 17.7486C10.0289 17.6502 9.98964 17.5404 9.97389 17.4261C9.95814 17.3119 9.96621 17.1956 9.99759 17.0846C10.029 16.9736 10.083 16.8703 10.1562 16.7812C10.5619 16.1951 11.1036 15.7163 11.735 15.3856C12.3664 15.055 13.0685 14.8824 13.7812 14.8827H16.2422C16.9549 14.8824 17.6571 15.055 18.2884 15.3856C18.9198 15.7163 19.4615 16.1951 19.8672 16.7812C19.9539 16.9061 20.0048 17.0522 20.0146 17.2039C20.0244 17.3556 19.9926 17.5072 19.9227 17.6422C19.8528 17.7772 19.7474 17.8905 19.6179 17.9701C19.4883 18.0496 19.3395 18.0924 19.1875 18.0937H19.1641ZM15 13.9374C14.3047 13.9374 13.625 13.7312 13.0468 13.3449C12.4687 12.9586 12.0181 12.4095 11.752 11.7672C11.4859 11.1248 11.4163 10.4179 11.5519 9.73592C11.6876 9.05395 12.0224 8.42753 12.5141 7.93586C13.0057 7.44419 13.6322 7.10936 14.3141 6.97371C14.9961 6.83806 15.703 6.90768 16.3454 7.17377C16.9878 7.43986 17.5368 7.89046 17.9231 8.46861C18.3094 9.04675 18.5156 9.72646 18.5156 10.4218C18.5156 11.3542 18.1452 12.2484 17.4859 12.9077C16.8266 13.567 15.9324 13.9374 15 13.9374ZM15 8.57803C14.6353 8.57803 14.2789 8.68617 13.9757 8.88876C13.6725 9.09135 13.4361 9.37931 13.2966 9.71621C13.157 10.0531 13.1205 10.4238 13.1917 10.7815C13.2628 11.1391 13.4384 11.4677 13.6963 11.7255C13.9541 11.9834 14.2826 12.159 14.6403 12.2301C14.998 12.3012 15.3687 12.2647 15.7056 12.1252C16.0425 11.9856 16.3304 11.7493 16.533 11.4461C16.7356 11.1429 16.8437 10.7864 16.8437 10.4218C16.8376 9.93614 16.6409 9.47235 16.296 9.13039C15.9511 8.78843 15.4857 8.59567 15 8.59366V8.57803ZM5.83594 19.9999C5.61423 19.9999 5.40161 19.9118 5.24484 19.7551C5.08807 19.5983 5 19.3857 5 19.164V5.83585C4.98874 5.71981 5.00188 5.6027 5.03857 5.49204C5.07526 5.38138 5.1347 5.27962 5.21305 5.19329C5.29141 5.10697 5.38696 5.03799 5.49355 4.99078C5.60015 4.94358 5.71545 4.91919 5.83203 4.91919C5.94861 4.91919 6.06391 4.94358 6.17051 4.99078C6.27711 5.03799 6.37265 5.10697 6.45101 5.19329C6.52936 5.27962 6.5888 5.38138 6.62549 5.49204C6.66218 5.6027 6.67532 5.71981 6.66406 5.83585V19.164C6.66407 19.3843 6.57707 19.5958 6.42199 19.7523C6.26691 19.9089 6.05628 19.9978 5.83594 19.9999Z" fill="#617492"/>
<path d="M19.1641 25H5.83594C5.06926 25.001 4.30992 24.8508 3.60141 24.5579C2.8929 24.2649 2.24914 23.8351 1.70702 23.293C1.1649 22.7509 0.735064 22.1071 0.442145 21.3986C0.149226 20.6901 -0.00102316 19.9307 5.24377e-06 19.1641V5.83594C5.24377e-06 4.28815 0.614861 2.80376 1.70931 1.70931C2.80376 0.614861 4.28815 5.24377e-06 5.83594 5.24377e-06H19.1641C19.9307 -0.00102316 20.6901 0.149226 21.3986 0.442145C22.1071 0.735064 22.7509 1.1649 23.293 1.70702C23.8351 2.24914 24.2649 2.8929 24.5579 3.60141C24.8508 4.30992 25.001 5.06926 25 5.83594V19.1641C25 19.9304 24.849 20.6893 24.5558 21.3974C24.2625 22.1054 23.8326 22.7488 23.2907 23.2907C22.7488 23.8326 22.1054 24.2625 21.3974 24.5558C20.6893 24.849 19.9304 25 19.1641 25ZM5.83594 1.66407C5.28779 1.66304 4.74484 1.77024 4.23822 1.97954C3.7316 2.18883 3.27128 2.49609 2.88368 2.88368C2.49609 3.27128 2.18883 3.7316 1.97954 4.23822C1.77024 4.74484 1.66304 5.28779 1.66407 5.83594V19.1641C1.66407 20.2684 2.10278 21.3276 2.88369 22.1085C3.6646 22.8894 4.72375 23.3281 5.82813 23.3281H19.1641C20.2684 23.3281 21.3276 22.8894 22.1085 22.1085C22.8894 21.3276 23.3281 20.2684 23.3281 19.1641V5.83594C23.3281 4.73156 22.8894 3.67242 22.1085 2.8915C21.3276 2.11059 20.2684 1.67188 19.1641 1.67188L5.83594 1.66407Z" fill="#617492"/>
</svg>
